# xmcd
#
# Track frame offsets:
#	150
#	9147
#	21101
#	33576
#	44454
#	54462
#	63951
#	76706
#	84187
#	96064
#	110329
#	116677
#
# Disc length: 1686 seconds
#
# Revision: 1
# Processed by: cddbd v1.5.2PL0 Copyright (c) Steve Scherf et al.
# Submitted via: audiograbber 1.83.01
#
DISCID=8106940c
DTITLE=Jim Reeves - The Only Album You'll Ever Need
DYEAR=1900
DGENRE=
TTITLE0=Billy Bayou
TTITLE1=Am I Losing You
TTITLE2=Bimbo
TTITLE3=Hav I Told You Lately That I Love You
TTITLE4=He'll HAve To Go
TTITLE5=Dear Hearts and Gentle People
TTITLE6=How's The World Treating You
TTITLE7=Roly Poly
TTITLE8=Mexican Joe
TTITLE9=You're The Sweetest Thing
TTITLE10=I'm Beginning To Forget You
TTITLE11=Just Cll Me Lonesome
EXTD=
EXTT0=
EXTT1=
EXTT2=
EXTT3=
EXTT4=
EXTT5=
EXTT6=
EXTT7=
EXTT8=
EXTT9=
EXTT10=
EXTT11=
PLAYORDER=
